#N canvas 652 38 810 629 10;
#X declare -lib mrpeach;
#X obj 65 130 hradio 16 1 0 9 tracker empty Steps 150 8 0 10 -4034
-1 -1 2;
#X obj 65 210 bng 15 250 50 0 empty empty empty 17 7 0 10 -262144 -1
-1;
#X obj 65 186 sel 1;
#X obj 65 162 tabread kick;
#N canvas 0 50 450 278 (subpatch) 0;
#X array kick 9 float 2;
#X coords 0 1 9 0 50 30 1 0 0;
#X restore 159 175 graph;
#X obj 300 155 tgl 15 0 kick1s kick1r empty 5 -8 0 10 -262144 -1 -1
1 1;
#X obj 316 155 tgl 15 0 kick2s kick2r empty 17 7 0 10 -262144 -1 -1
0 1;
#X obj 332 155 tgl 15 0 kick3s kick3r empty 17 7 0 10 -262144 -1 -1
0 1;
#X obj 348 155 tgl 15 0 kick4s kick4r empty 17 7 0 10 -262144 -1 -1
1 1;
#X obj 364 155 tgl 15 0 kick5s kick5r empty 5 -8 0 10 -262144 -1 -1
0 1;
#X obj 380 155 tgl 15 0 kick6s kick6r empty 17 7 0 10 -262144 -1 -1
1 1;
#X obj 396 155 tgl 15 0 kick7s kick7r empty 17 7 0 10 -262144 -1 -1
0 1;
#X obj 412 155 tgl 15 0 kick8s kick8r empty 17 7 0 10 -262144 -1 -1
1 1;
#N canvas 698 312 592 272 kick 0;
#N canvas 0 50 450 278 (subpatch) 0;
#X array kicksample 51000 float 2;
#X coords 0 1 51000 -1 200 140 1;
#X restore 300 34 graph;
#X obj 118 89 soundfiler;
#X obj 66 108 bng 15 250 50 0 empty empty empty 17 7 0 10 -262144 -1
-1;
#X obj 66 75 inlet;
#X obj 118 18 loadbang;
#X msg 118 41 open kick.wav;
#X obj 118 178 outlet~;
#X msg 118 65 read -resize \$1 kicksample;
#X obj 118 148 tabplay~ kicksample;
#X connect 1 0 8 0;
#X connect 2 0 8 0;
#X connect 3 0 2 0;
#X connect 4 0 5 0;
#X connect 5 0 7 0;
#X connect 7 0 1 0;
#X connect 8 0 6 0;
#X restore 65 231 pd kick;
#X obj 65 264 dac~;
#X floatatom 152 72 5 0 0 0 - - -;
#X obj 108 72 tgl 15 0 empty empty empty 17 7 0 10 -262144 -1 -1 1
1;
#X obj 65 72 bng 15 250 50 0 empty empty empty 17 7 0 10 -262144 -1
-1;
#X text 56 55 reset;
#N canvas 52 50 742 428 kicktable_router 0;
#X floatatom 99 103 5 0 0 1 Position - -;
#X obj 39 168 tabwrite kick;
#X floatatom 56 102 5 0 0 0 on/off - -;
#X obj 72 51 t f b;
#X obj 144 68 bng 15 250 50 0 empty empty empty 17 7 0 10 -262144 -1
-1;
#X msg 99 80 1;
#X obj 72 23 r kick1s;
#X floatatom 280 105 5 0 0 1 Position - -;
#X obj 220 170 tabwrite kick;
#X floatatom 237 104 5 0 0 0 on/off - -;
#X obj 253 53 t f b;
#X obj 325 70 bng 15 250 50 0 empty empty empty 17 7 0 10 -262144 -1
-1;
#X obj 253 25 r kick2s;
#X msg 280 82 2;
#X floatatom 450 105 5 0 0 1 Position - -;
#X obj 390 170 tabwrite kick;
#X floatatom 407 104 5 0 0 0 on/off - -;
#X obj 423 53 t f b;
#X obj 495 70 bng 15 250 50 0 empty empty empty 17 7 0 10 -262144 -1
-1;
#X floatatom 621 105 5 0 0 1 Position - -;
#X obj 561 170 tabwrite kick;
#X floatatom 578 104 5 0 0 0 on/off - -;
#X obj 594 53 t f b;
#X floatatom 98 313 5 0 0 1 Position - -;
#X obj 38 378 tabwrite kick;
#X floatatom 55 312 5 0 0 0 on/off - -;
#X obj 71 261 t f b;
#X obj 143 278 bng 15 250 50 0 empty empty empty 17 7 0 10 -262144
-1 -1;
#X floatatom 279 315 5 0 0 1 Position - -;
#X obj 219 380 tabwrite kick;
#X floatatom 236 314 5 0 0 0 on/off - -;
#X obj 252 263 t f b;
#X floatatom 454 315 5 0 0 1 Position - -;
#X obj 394 380 tabwrite kick;
#X floatatom 411 314 5 0 0 0 on/off - -;
#X obj 427 263 t f b;
#X obj 499 280 bng 15 250 50 0 empty empty empty 17 7 0 10 -262144
-1 -1;
#X floatatom 622 315 5 0 0 1 Position - -;
#X obj 562 380 tabwrite kick;
#X floatatom 579 314 5 0 0 0 on/off - -;
#X obj 595 263 t f b;
#X obj 423 25 r kick3s;
#X msg 450 82 3;
#X obj 594 25 r kick4s;
#X msg 621 82 4;
#X obj 71 233 r kick5s;
#X msg 98 290 5;
#X obj 252 235 r kick6s;
#X msg 279 292 6;
#X msg 454 292 7;
#X obj 427 234 r kick7s;
#X obj 595 235 r kick8s;
#X msg 622 292 8;
#X connect 0 0 1 1;
#X connect 2 0 1 0;
#X connect 3 0 2 0;
#X connect 3 1 5 0;
#X connect 3 1 4 0;
#X connect 5 0 0 0;
#X connect 6 0 3 0;
#X connect 7 0 8 1;
#X connect 9 0 8 0;
#X connect 10 0 9 0;
#X connect 10 1 13 0;
#X connect 10 1 11 0;
#X connect 12 0 10 0;
#X connect 13 0 7 0;
#X connect 14 0 15 1;
#X connect 16 0 15 0;
#X connect 17 0 16 0;
#X connect 17 1 42 0;
#X connect 17 1 18 0;
#X connect 19 0 20 1;
#X connect 21 0 20 0;
#X connect 22 0 21 0;
#X connect 22 1 44 0;
#X connect 23 0 24 1;
#X connect 25 0 24 0;
#X connect 26 0 25 0;
#X connect 26 1 46 0;
#X connect 26 1 27 0;
#X connect 28 0 29 1;
#X connect 30 0 29 0;
#X connect 31 0 30 0;
#X connect 31 1 48 0;
#X connect 32 0 33 1;
#X connect 34 0 33 0;
#X connect 35 0 34 0;
#X connect 35 1 49 0;
#X connect 35 1 36 0;
#X connect 37 0 38 1;
#X connect 39 0 38 0;
#X connect 40 0 39 0;
#X connect 40 1 52 0;
#X connect 41 0 17 0;
#X connect 42 0 14 0;
#X connect 43 0 22 0;
#X connect 44 0 19 0;
#X connect 45 0 26 0;
#X connect 46 0 23 0;
#X connect 47 0 31 0;
#X connect 48 0 28 0;
#X connect 49 0 32 0;
#X connect 50 0 35 0;
#X connect 51 0 40 0;
#X connect 52 0 37 0;
#X restore 300 189 pd kicktable_router;
#N canvas 0 50 459 366 secuenciador 0;
#X obj 150 209 f;
#X obj 184 210 + 1;
#X obj 150 237 % 8;
#X obj 150 185 metro;
#X obj 59 108 bng 15 250 50 0 empty empty Reset 17 7 0 10 -262144 -1
-1;
#X obj 150 106 tgl 15 0 empty empty Start 17 7 0 10 -262144 -1 -1 1
1;
#X msg 209 112 60000;
#X floatatom 252 72 5 0 0 0 - - -;
#X obj 209 135 /;
#X obj 209 159 / 4;
#X obj 252 90 t b f;
#X obj 209 90 t b b;
#X obj 150 54 inlet;
#X obj 252 37 inlet;
#X msg 311 90 120;
#X obj 311 66 loadbang;
#X obj 150 285 outlet;
#X obj 59 59 inlet;
#X obj 150 259 + 1;
#X msg 59 169 -1;
#X connect 0 0 1 0;
#X connect 0 0 2 0;
#X connect 1 0 0 1;
#X connect 2 0 18 0;
#X connect 3 0 0 0;
#X connect 4 0 19 0;
#X connect 5 0 3 0;
#X connect 6 0 8 0;
#X connect 7 0 10 0;
#X connect 8 0 9 0;
#X connect 9 0 3 1;
#X connect 10 0 11 0;
#X connect 10 1 8 1;
#X connect 11 0 6 0;
#X connect 11 1 7 0;
#X connect 12 0 5 0;
#X connect 13 0 7 0;
#X connect 14 0 7 0;
#X connect 15 0 14 0;
#X connect 17 0 4 0;
#X connect 18 0 16 0;
#X connect 19 0 0 0;
#X restore 65 99 pd secuenciador;
#X text 208 13 tempo BPM;
#X text 437 153 <--Seleccionar Disparos;
#X text 99 56 ON/OFF;
#X text 163 95 <-- patch que genera los pasos del secuenciador;
#X text 425 188 <-- patch para cargar los disparos selecionados en
la tabla "kick";
#X text 122 230 <-- patch para cargar sample y reproducirlo;
#X msg 267 421 disconnect;
#X msg 245 399 connect 127.0.0.1 12345;
#X obj 245 471 tgl 15 0 empty empty 1=connected 20 8 0 8 -4034 -1 -1
1 1;
#X obj 245 445 mrpeach/udpsend;
#X obj 145 399 mrpeach/packOSC;
#X msg 145 330 send /actuador \$1;
#X obj 63 19 import mrpeach;
#X floatatom 135 300 5 0 0 0 - - -;
#X obj 207 32 hsl 128 15 20 120 0 0 empty empty empty -2 -8 0 10 -262144
-1 -1 5200 1;
#X msg 114 271 1;
#X obj 494 275 mrpeach/unpackOSC;
#X floatatom 493 399 5 0 0 0 - - -;
#X obj 493 332 mrpeach/routeOSC /control;
#X obj 494 251 mrpeach/udpreceive 12346;
#X obj 494 377 mrpeach/routeOSC /numAciertos;
#X msg 556 509 disconnect;
#X obj 534 559 tgl 15 0 empty empty 1=connected 20 8 0 8 -4034 -1 -1
0 1;
#X obj 534 533 mrpeach/udpsend;
#X obj 500 462 mrpeach/packOSC;
#X msg 534 487 connect 127.0.0.1 12347;
#X msg 493 431 send /actuador2 \$1;
#X connect 0 0 3 0;
#X connect 1 0 13 0;
#X connect 1 0 36 0;
#X connect 2 0 1 0;
#X connect 3 0 2 0;
#X connect 13 0 14 0;
#X connect 13 0 14 1;
#X connect 15 0 20 2;
#X connect 16 0 20 1;
#X connect 17 0 20 0;
#X connect 20 0 0 0;
#X connect 27 0 30 0;
#X connect 28 0 30 0;
#X connect 30 0 29 0;
#X connect 31 0 30 0;
#X connect 32 0 31 0;
#X connect 34 0 32 0;
#X connect 35 0 15 0;
#X connect 36 0 34 0;
#X connect 37 0 39 0;
#X connect 38 0 47 0;
#X connect 39 0 41 0;
#X connect 40 0 37 0;
#X connect 41 0 38 0;
#X connect 42 0 44 0;
#X connect 44 0 43 0;
#X connect 45 0 44 0;
#X connect 46 0 44 0;
#X connect 47 0 45 0;
